<svg width="129" height="129" viewBox="0 0 129 129" fill="none" xmlns="http://www.w3.org/2000/svg">
<path d="M5.1062 107.5V94.8687C5.1062 91.7333 5.91245 88.889 7.52495 86.3359C9.13745 83.7828 11.377 81.8792 14.2437 80.625C20.7833 77.7583 26.6734 75.6979 31.914 74.4437C37.1546 73.1896 42.552 72.5625 48.1062 72.5625C53.6604 72.5625 59.0354 73.1896 64.2312 74.4437C69.427 75.6979 75.2947 77.7583 81.8343 80.625C84.701 81.8792 86.963 83.7828 88.6203 86.3359C90.2775 88.889 91.1062 91.7333 91.1062 94.8687V107.5H5.1062ZM99.1687 107.5V94.8687C99.1687 89.225 97.7354 84.589 94.8687 80.9609C92.002 77.3328 88.2395 74.3989 83.5812 72.1594C89.7624 72.876 95.5854 73.9286 101.05 75.3172C106.515 76.7057 110.949 78.2958 114.353 80.0875C117.309 81.7896 119.638 83.8948 121.341 86.4031C123.043 88.9114 123.894 91.7333 123.894 94.8687V107.5H99.1687ZM48.1062 64.3656C42.1937 64.3656 37.3562 62.4844 33.5937 58.7219C29.8312 54.9594 27.9499 50.1219 27.9499 44.2094C27.9499 38.2969 29.8312 33.4594 33.5937 29.6969C37.3562 25.9344 42.1937 24.0531 48.1062 24.0531C54.0187 24.0531 58.8562 25.9344 62.6187 29.6969C66.3812 33.4594 68.2624 38.2969 68.2624 44.2094C68.2624 50.1219 66.3812 54.9594 62.6187 58.7219C58.8562 62.4844 54.0187 64.3656 48.1062 64.3656ZM96.4812 44.2094C96.4812 50.1219 94.5999 54.9594 90.8374 58.7219C87.0749 62.4844 82.2374 64.3656 76.3249 64.3656C75.3395 64.3656 74.2421 64.2984 73.0328 64.164C71.8234 64.0297 70.726 63.7833 69.7406 63.425C71.8906 61.1854 73.5255 58.4307 74.6453 55.1609C75.7651 51.8911 76.3249 48.2406 76.3249 44.2094C76.3249 40.1781 75.7651 36.6172 74.6453 33.5265C73.5255 30.4359 71.8906 27.5916 69.7406 24.9937C70.726 24.725 71.8234 24.501 73.0328 24.3219C74.2421 24.1427 75.3395 24.0531 76.3249 24.0531C82.2374 24.0531 87.0749 25.9344 90.8374 29.6969C94.5999 33.4594 96.4812 38.2969 96.4812 44.2094ZM13.1687 99.4375H83.0437V94.8687C83.0437 93.4354 82.6182 92.0469 81.7671 90.7031C80.9161 89.3594 79.8635 88.4187 78.6093 87.8812C72.1593 85.0146 66.7395 83.0885 62.3499 82.1031C57.9604 81.1177 53.2124 80.625 48.1062 80.625C42.9999 80.625 38.2296 81.1177 33.7953 82.1031C29.3609 83.0885 23.9187 85.0146 17.4687 87.8812C16.2145 88.4187 15.1843 89.3594 14.3781 90.7031C13.5718 92.0469 13.1687 93.4354 13.1687 94.8687V99.4375ZM48.1062 56.3031C51.5999 56.3031 54.489 55.1609 56.7734 52.8765C59.0578 50.5922 60.1999 47.7031 60.1999 44.2094C60.1999 40.7156 59.0578 37.8265 56.7734 35.5422C54.489 33.2578 51.5999 32.1156 48.1062 32.1156C44.6124 32.1156 41.7234 33.2578 39.439 35.5422C37.1546 37.8265 36.0124 40.7156 36.0124 44.2094C36.0124 47.7031 37.1546 50.5922 39.439 52.8765C41.7234 55.1609 44.6124 56.3031 48.1062 56.3031Z" fill="white"/>
</svg>
