<svg width="105" height="101" viewBox="0 0 105 101" fill="none" xmlns="http://www.w3.org/2000/svg">
<path d="M8.75 92.5834C8.75 85.0785 9.88021 78.5906 12.1406 73.1198C14.401 67.649 17.2812 63.1075 20.7812 59.4953C24.2812 55.8832 28.1641 53.0776 32.4297 51.0787C36.6953 49.0797 40.8333 47.7997 44.8438 47.2386V32.6146C34.8542 31.4222 26.3411 28.6342 19.3047 24.2505C12.2682 19.8669 8.75 14.5889 8.75 8.41669H96.25C96.25 14.5889 92.7318 19.8669 85.6953 24.2505C78.6589 28.6342 70.1458 31.4222 60.1562 32.6146V47.2386C64.1667 47.7997 68.3047 49.0797 72.5703 51.0787C76.8359 53.0776 80.7188 55.8832 84.2188 59.4953C87.7188 63.1075 90.599 67.649 92.8594 73.1198C95.1198 78.5906 96.25 85.0785 96.25 92.5834H70V86.2709H89.3594C88.0469 75.6097 84 67.386 77.2188 61.5995C70.4375 55.813 62.1979 52.9198 52.5 52.9198C42.8021 52.9198 34.5625 55.813 27.7812 61.5995C21 67.386 16.9531 75.6097 15.6406 86.2709H35V92.5834H8.75ZM52.5 26.8281C60.2292 26.8281 67.375 25.5481 73.9375 22.988C80.5 20.428 84.8385 17.675 86.9531 14.7292H18.0469C20.1615 17.675 24.5 20.428 31.0625 22.988C37.625 25.5481 44.7708 26.8281 52.5 26.8281ZM52.5 92.5834C50.0938 92.5834 48.0339 91.7592 46.3203 90.111C44.6068 88.4627 43.75 86.4813 43.75 84.1667C43.75 82.9743 43.987 81.8872 44.4609 80.9052C44.9349 79.9233 45.5729 79.0466 46.375 78.275C48.125 76.5917 51.1328 74.8382 55.3984 73.0146C59.6641 71.191 64.5312 69.2972 70 67.3334C67.8854 72.5938 65.8984 77.2755 64.0391 81.3787C62.1797 85.4818 60.375 88.375 58.625 90.0584C57.8229 90.8299 56.9115 91.4436 55.8906 91.8995C54.8698 92.3554 53.7396 92.5834 52.5 92.5834Z" fill="white"/>
</svg>
