<svg width="110" height="110" viewBox="0 0 110 110" fill="none" xmlns="http://www.w3.org/2000/svg">
<path d="M55 96.1354L50.302 91.8958C42.2225 84.4768 35.5429 78.0769 30.2632 72.6961C24.9836 67.3154 20.7777 62.5052 17.6458 58.2656C14.5138 54.026 12.3177 50.1875 11.0573 46.75C9.79683 43.3125 9.16663 39.8368 9.16663 36.3229C9.16663 29.4361 11.4774 23.6849 16.0989 19.0693C20.7204 14.4536 26.4305 12.1458 33.2291 12.1458C37.5833 12.1458 41.6128 13.1771 45.3177 15.2396C49.0225 17.3021 52.25 20.2812 55 24.1771C58.2083 20.0521 61.6076 17.0156 65.1979 15.0677C68.7882 13.1198 72.6458 12.1458 76.7708 12.1458C83.5694 12.1458 89.2795 14.4536 93.901 19.0693C98.5225 23.6849 100.833 29.4361 100.833 36.3229C100.833 39.8368 100.203 43.3125 98.9427 46.75C97.6822 50.1875 95.4861 54.026 92.3541 58.2656C89.2222 62.5052 85.0164 67.3154 79.7367 72.6961C74.457 78.0769 67.7774 84.4768 59.6979 91.8958L55 96.1354ZM55 87.0833C62.7333 79.9795 69.0971 73.8876 74.0916 68.8075C79.0861 63.7275 83.0538 59.2778 85.9947 55.4583C88.9357 51.6389 90.9982 48.2344 92.1822 45.2449C93.3663 42.2554 93.9583 39.2869 93.9583 36.3395C93.9583 31.2868 92.3541 27.1371 89.1458 23.8906C85.9375 20.6441 81.821 19.0208 76.7966 19.0208C72.8607 19.0208 69.2179 20.2239 65.8682 22.6302C62.5185 25.0364 59.8125 28.4166 57.75 32.7708H52.1354C50.1493 28.493 47.4814 25.1319 44.1317 22.6875C40.782 20.243 37.1392 19.0208 33.2033 19.0208C28.1789 19.0208 24.0625 20.6441 20.8541 23.8906C17.6458 27.1371 16.0416 31.2933 16.0416 36.3591C16.0416 39.3141 16.6336 42.3003 17.8177 45.3177C19.0017 48.335 21.0642 51.7725 24.0052 55.6302C26.9461 59.4878 30.9375 63.9375 35.9791 68.9791C41.0208 74.0208 47.3611 80.0555 55 87.0833Z" fill="white"/>
</svg>
