<svg width="110" height="114" viewBox="0 0 110 114" fill="none" xmlns="http://www.w3.org/2000/svg">
<path d="M54.9513 113.25C39.9282 113.25 27.1736 107.755 16.6877 96.7656C6.20171 85.776 0.95874 72.4688 0.95874 56.8438H10.0331C10.0331 69.8646 14.3687 80.9583 23.0397 90.125C31.7108 99.2917 42.348 103.875 54.9513 103.875C67.7563 103.875 78.5951 99.2396 87.4678 89.9688C96.3406 80.6979 100.777 69.4479 100.777 56.2188C100.777 43.3021 96.2901 32.3906 87.3166 23.4844C78.343 14.5781 67.5546 10.125 54.9513 10.125C48.0951 10.125 41.6674 11.7396 35.6682 14.9688C29.6691 18.1979 24.4513 22.4688 20.0149 27.7812H35.8951V37.1562H4.28601V4.65625H13.3604V21.2188C18.6034 14.8646 24.8294 9.86458 32.0385 6.21875C39.2476 2.57292 46.8852 0.75 54.9513 0.75C62.5133 0.75 69.6215 2.20833 76.2761 5.125C82.9306 8.04167 88.7534 12.026 93.7443 17.0781C98.7352 22.1302 102.667 28.0417 105.541 34.8125C108.415 41.5833 109.851 48.875 109.851 56.6875C109.851 64.5 108.415 71.8438 105.541 78.7188C102.667 85.5938 98.7352 91.5833 93.7443 96.6875C88.7534 101.792 82.9306 105.828 76.2761 108.797C69.6215 111.766 62.5133 113.25 54.9513 113.25ZM74.31 82.4688L51.0191 58.7188V25.2812H60.0934V54.8125L80.8133 75.75L74.31 82.4688Z" fill="#F8F8F8"/>
</svg>
