<svg width="113" height="111" viewBox="0 0 113 111" fill="none" xmlns="http://www.w3.org/2000/svg">
<path d="M8.3208 110.125C4.8684 110.125 2.41452 108.514 0.959166 105.291C-0.49627 102.068 -0.0257243 99.134 2.3708 96.4896L33.1125 61.7813V28.3125H26.6666C25.613 28.3125 24.7298 27.9541 24.017 27.2372C23.3043 26.5202 22.9479 25.6318 22.9479 24.5721C22.9479 23.5122 23.3043 22.6311 24.017 21.9286C24.7298 21.2262 25.613 20.875 26.6666 20.875H66.3333C67.3869 20.875 68.2701 21.2334 68.9829 21.9503C69.6957 22.6673 70.052 23.5557 70.052 24.6154C70.052 25.6753 69.6957 26.5564 68.9829 27.2589C68.2701 27.9613 67.3869 28.3125 66.3333 28.3125H59.8875V61.7813L90.6291 96.4896C93.0257 99.134 93.4962 102.068 92.0408 105.291C90.5854 108.514 88.1315 110.125 84.6791 110.125H8.3208ZM6.8333 102.688H86.1666L52.45 64.5083V28.3125H40.55V64.5083L6.8333 102.688Z" fill="#F8F8F8"/>
<path d="M82.875 32.375H84.8L104.181 11.1479L102.256 9.03958L82.875 30.2667V32.375ZM109.738 9.08749L104.138 2.95416L105.975 0.941659C106.471 0.398603 107.083 0.127075 107.813 0.127075C108.542 0.127075 109.154 0.398603 109.65 0.941659L111.575 3.04999C112.071 3.59305 112.319 4.26388 112.319 5.06249C112.319 5.8611 112.071 6.53194 111.575 7.07499L109.738 9.08749ZM107.9 11.1L85.85 35.25H80.25V29.1167L102.3 4.96666L107.9 11.1ZM103.219 10.0937L102.256 9.03958L104.181 11.1479L103.219 10.0937Z" fill="#F8F8F8"/>
</svg>
