<svg width="1094" height="1117" viewBox="0 0 1094 1117" fill="none" xmlns="http://www.w3.org/2000/svg">
<g clip-path="url(#clip0_178_50)">
<rect width="1094" height="1117" fill="#1D1D1C"/>
<path d="M728.823 530.91H911.411V91.2944C911.411 40.8739 870.537 7.08103e-05 820.117 7.08103e-05V7.08103e-05C769.697 7.08103e-05 728.823 40.8739 728.823 91.2943V530.91Z" fill="#EF7B30"/>
<path d="M365.396 779.331H547.985V304.53C547.985 254.109 507.111 213.235 456.69 213.235V213.235C406.27 213.235 365.396 254.109 365.396 304.53V779.331Z" fill="#FBE2D1"/>
<path d="M546.344 779.331H728.823V0.000227809H546.344V779.331Z" fill="#FAD3BA"/>
<path d="M0.21875 1152.19H182.807V721.617C182.807 671.197 141.933 630.323 91.513 630.323V630.323C41.0926 630.323 0.21875 671.197 0.21875 721.617V1152.19Z" fill="#FAD3BA"/>
<path d="M365.287 1111.53H547.766V538.375C547.766 487.985 506.916 447.135 456.526 447.135V447.135C406.136 447.135 365.287 487.985 365.287 538.375V1111.53Z" fill="#EF7B30"/>
<path d="M0.109375 -35.1855H182.698V537.912C182.698 588.332 141.824 629.206 91.4037 629.206V629.206C40.9832 629.206 0.109375 588.332 0.109375 537.912V-35.1855Z" fill="#EF7B30"/>
<path d="M728.823 771.4H911.411V1032.41C911.411 1079.13 870.534 1117 820.117 1117C769.7 1117 728.823 1079.13 728.823 1032.41V771.4Z" fill="#EF7B30"/>
<path d="M728.823 447.135H911.411V820.222C911.411 882.397 870.534 932.806 820.117 932.806C769.7 932.806 728.823 882.397 728.823 820.222V447.135Z" fill="#FBE2D1"/>
<rect x="728.823" y="413.736" width="182.589" height="117.173" fill="#FBE2D1"/>
<path d="M1094 128.678H911.411V437.668C911.411 489.161 952.288 530.91 1002.71 530.91C1053.12 530.91 1094 489.161 1094 437.668V128.678Z" fill="#FAD3BA"/>
<path d="M365.287 128.678H182.698V437.668C182.698 489.161 223.575 530.91 273.992 530.91C324.41 530.91 365.287 489.161 365.287 437.668V128.678Z" fill="#FAD3BA"/>
<path d="M1094 911.695H911.411V624.11C911.411 572.641 952.288 530.91 1002.71 530.91C1053.12 530.91 1094 572.641 1094 624.11V911.695Z" fill="#EF7B30"/>
<path d="M365.177 911.695H182.698V624.11C182.698 572.641 223.551 530.91 273.938 530.91C324.325 530.91 365.177 572.641 365.177 624.11V911.695Z" fill="#F3995E"/>
<path d="M1094 1117H911.411V835.211C911.411 788.251 952.288 750.177 1002.71 750.177C1053.12 750.177 1094 788.251 1094 835.211V1117Z" fill="#FBE2D1"/>
<path d="M365.177 1117H182.698V835.211C182.698 788.251 223.551 750.177 273.938 750.177C324.325 750.177 365.177 788.251 365.177 835.211V1117Z" fill="#FBE2D1"/>
<path d="M0.109416 -0.000176958H182.698V281.703C182.698 328.649 141.821 366.711 91.4037 366.711C40.9864 366.711 0.109416 328.649 0.109416 281.703V-0.000176958Z" fill="#FBE2D1"/>
<path d="M911.411 35.5209C961.869 35.5209 1002.76 77.2315 1002.76 128.679H911.411V35.5209Z" fill="#FAD3BA"/>
<path d="M182.698 35.5209C233.095 35.5209 273.938 77.2315 273.938 128.679H182.698V35.5209Z" fill="#FAD3BA"/>
<path d="M1094 35.5209C1043.6 35.5209 1002.76 77.2315 1002.76 128.679H1094V35.5209Z" fill="#FAD3BA"/>
<path d="M365.287 35.5209C314.829 35.5209 273.938 77.2315 273.938 128.679H365.287V35.5209Z" fill="#FAD3BA"/>
<path d="M911.411 5.32662V-9.2788e-05H1002.76V35.5205C952.309 35.5205 911.411 22.0025 911.411 5.32662Z" fill="#EF7B30"/>
<path d="M182.698 5.32662V-9.2788e-05H273.938V35.5205C223.547 35.5205 182.698 22.0025 182.698 5.32662Z" fill="#EF7B30"/>
<path d="M1002.76 35.5205V-9.2788e-05H1094V5.32662C1094 22.0025 1053.15 35.5205 1002.76 35.5205Z" fill="#EF7B30"/>
<path d="M273.938 35.5205V-9.2788e-05H365.287V5.32662C365.287 22.0025 324.389 35.5205 273.938 35.5205Z" fill="#EF7B30"/>
<path d="M728.823 507.006C779.28 507.006 820.172 465.245 820.172 413.736H728.823V507.006Z" fill="#EF7B30"/>
<path d="M911.411 507.006C861.014 507.006 820.172 465.245 820.172 413.736H911.411V507.006Z" fill="#EF7B30"/>
<path d="M365.287 1089.38V1117H547.766V932.807C446.984 932.807 365.287 1002.9 365.287 1089.38Z" fill="white"/>
<path d="M547.766 932.807V1117H730.245V1089.38C730.245 1002.9 648.548 932.807 547.766 932.807Z" fill="#FBE2D1"/>
<path d="M639.06 509.687C689.477 509.687 730.354 551.413 730.354 602.878V818.505C730.354 869.969 689.477 911.695 639.06 911.695C588.643 911.695 547.766 869.969 547.766 818.505V602.878C547.766 551.413 588.643 509.687 639.06 509.687Z" fill="#F3995E"/>
<path d="M91.2396 750.289C141.627 750.289 182.479 788.351 182.479 835.297V1031.99C182.479 1078.94 141.627 1117 91.2396 1117C40.8525 1117 0 1078.94 0 1031.99V835.297C0 788.351 40.8525 750.289 91.2396 750.289Z" fill="#F3995E"/>
<path d="M730.354 0V27.6051C730.354 114.026 648.657 184.082 547.875 184.082V0H730.354Z" fill="#EF7B30"/>
<path d="M547.875 0V184.082C447.093 184.082 365.396 114.026 365.396 27.6051V0H547.875Z" fill="#FBE2D1"/>
</g>
<defs>
<clipPath id="clip0_178_50">
<rect width="1094" height="1117" fill="white"/>
</clipPath>
</defs>
</svg>
