<svg width="104" height="116" viewBox="0 0 104 116" fill="none" xmlns="http://www.w3.org/2000/svg">
<path fill-rule="evenodd" clip-rule="evenodd" d="M27.2729 7.3625L28.975 11.3208L30.6771 7.3625L34.7937 5.54167L30.6771 3.76042L28.975 0L27.2729 3.76042L23.1562 5.54167L27.2729 7.3625ZM27.2729 31.0729L28.975 34.8729L30.6771 31.0729L34.7937 29.2917L30.6771 27.5104L28.975 23.5125L27.2729 27.5104L23.1562 29.2917L27.2729 31.0729ZM7.95625 20.9792L11.5979 28.7771L15.2792 20.9792L23.1958 17.4167L15.2792 13.8542L11.5979 6.09583L7.95625 13.8542L0 17.4167L7.95625 20.9792ZM13.4979 19.1187L11.5979 22.9187L9.7375 19.1187L5.81875 17.4167L9.7375 15.7146L11.5979 11.9146L13.4979 15.7146L17.3771 17.4167L13.4979 19.1187ZM63.7062 103.151H57.8052V97.4698C54.5865 96.6281 51.8863 95.278 49.7047 93.4193C47.5231 91.5606 45.6813 89.0181 44.1792 85.7917L49.651 84.0031C50.5094 86.6684 52.0293 88.7726 54.2109 90.3156C56.3925 91.8587 58.8781 92.6302 61.6677 92.6302C64.5288 92.6302 66.9071 91.9464 68.8026 90.5787C70.6981 89.2109 71.6458 87.4049 71.6458 85.1604C71.6458 82.8458 70.7517 80.8995 68.9635 79.3214C67.1753 77.7432 63.8851 75.9722 59.0927 74.0083C54.801 72.2549 51.5823 70.3611 49.4365 68.3271C47.2906 66.2931 46.2177 63.5576 46.2177 60.1208C46.2177 56.9646 47.2727 54.3168 49.3828 52.1776C51.4929 50.0384 54.3719 48.7233 58.0198 48.2323V42.8667H63.9208V48.2323C66.6389 48.5129 68.9993 49.3545 71.0021 50.7573C73.0049 52.1601 74.6142 54.0889 75.8302 56.5438L70.6802 58.9636C69.6073 56.9997 68.284 55.5267 66.7104 54.5448C65.1368 53.5629 63.2771 53.0719 61.1313 53.0719C58.3417 53.0719 56.1422 53.7031 54.5328 54.9656C52.9234 56.2281 52.1188 57.9465 52.1188 60.1208C52.1188 62.3653 53.0486 64.1538 54.9083 65.4865C56.7681 66.8191 59.7722 68.3271 63.9208 70.0104C68.8563 72.0445 72.3611 74.1837 74.4354 76.4281C76.5097 78.6726 77.5469 81.5833 77.5469 85.1604C77.5469 88.7375 76.3309 91.5957 73.899 93.7349C71.467 95.8741 68.0694 97.1892 63.7062 97.6802V103.151ZM44.2865 111.726C49.508 113.935 55.0514 115.04 60.9167 115.04C66.8535 115.04 72.4326 113.935 77.6542 111.726C82.8757 109.516 87.4177 106.5 91.2802 102.678C95.1427 98.855 98.2005 94.3837 100.454 89.2635C102.707 84.1434 103.833 78.7076 103.833 72.9563C103.833 67.1347 102.707 61.6639 100.454 56.5438C98.2005 51.4236 95.1427 46.9698 91.2802 43.1823C87.4177 39.3948 82.8757 36.3964 77.6542 34.187C72.4326 31.9776 66.8535 30.8729 60.9167 30.8729C55.0514 30.8729 49.508 31.9776 44.2865 34.187C39.0649 36.3964 34.505 39.3948 30.6068 43.1823C26.7085 46.9698 23.6328 51.4236 21.3797 56.5438C19.1266 61.6639 18 67.1347 18 72.9563C18 78.7076 19.1266 84.1434 21.3797 89.2635C23.6328 94.3837 26.7085 98.855 30.6068 102.678C34.505 106.5 39.0649 109.516 44.2865 111.726ZM86.774 98.2589C79.6927 105.238 71.0736 108.727 60.9167 108.727C50.8312 108.727 42.23 105.238 35.113 98.2589C27.996 91.28 24.4375 82.8458 24.4375 72.9563C24.4375 62.9965 27.996 54.5448 35.113 47.6011C42.23 40.6573 50.8312 37.1854 60.9167 37.1854C71.0736 37.1854 79.6927 40.6573 86.774 47.6011C93.8552 54.5448 97.3958 62.9965 97.3958 72.9563C97.3958 82.8458 93.8552 91.28 86.774 98.2589Z" fill="#F8F8F8"/>
</svg>
