<svg width="440" height="456" viewBox="0 0 440 456" fill="none" xmlns="http://www.w3.org/2000/svg">
<path d="M438.791 126.923L432.747 108.791L211.539 227.253V455.714H232.088V238.132L438.791 126.923Z" fill="#191818"/>
<path d="M55.6044 146.264V373.517L0 349.341V116.044L223.626 0L432.747 108.791L211.538 227.253V455.714L160.769 427.912V199.451L325.165 102.747L297.363 93.0769L131.758 186.154V412.198L82.1978 390.44V159.56L253.846 66.4835L226.044 53.1868L55.6044 146.264Z" fill="url(#paint0_linear_68_27)"/>
<path d="M232.088 455.714V238.132L438.791 126.923L440 356.593L232.088 455.714Z" fill="#F8F8F8"/>
<path d="M292.527 292.527V261.099L392.857 210.33V242.967L292.527 292.527Z" fill="black" stroke="black"/>
<path d="M296.154 374.725V343.297L396.483 292.527V325.165L296.154 374.725Z" fill="black" stroke="black"/>
<path d="M82.1978 380.769L55.6044 368.681V146.264L226.044 53.1868L253.846 66.4835L82.1978 160.769V380.769Z" fill="#191818"/>
<path d="M131.758 407.363V186.154L297.363 93.0769L325.165 102.747L160.769 199.451V421.868L131.758 407.363Z" fill="#191818"/>
<defs>
<linearGradient id="paint0_linear_68_27" x1="407.363" y1="51.978" x2="9.06093e-06" y2="351.758" gradientUnits="userSpaceOnUse">
<stop stop-color="#EF7B30"/>
<stop offset="1" stop-color="#FEB731"/>
</linearGradient>
</defs>
</svg>
